<svg xmlns="http://www.w3.org/2000/svg" width="1214" height="1102" viewBox="0 0 1214 1102" fill="none"><path d="M557.094 1102C536.651 1102 515.887 1101.8 491.755 1101.38L486.756 1101.29L481.684 1101.07C353.001 1095.85 238.42 1048.19 150.321 963.248C105.549 920.088 69.8602 870.016 44.2524 814.424C14.8824 750.682 0 682.709 0 612.398C0 503.396 37.3516 395.746 105.175 309.281C129.016 278.886 157.856 250.071 188.961 225.498C203.563 202.805 220.098 181.246 238.223 161.309C282.673 112.401 335.79 73.5963 396.1 45.9769C455.203 18.898 518.828 3.74218 585.206 0.935546C586.786 0.862781 589.686 0.758831 592.731 0.675672L594.217 0.644487C615.73 0.207899 636.224 0 656.906 0C677.245 0 697.999 0.197504 722.225 0.623697L727.057 0.717252L731.588 0.904361C860.677 6.11223 975.538 53.7835 1063.68 138.752C1108.47 181.932 1144.15 232.015 1169.75 287.597C1199.1 351.318 1213.98 419.28 1213.98 489.602C1213.98 598.604 1176.63 706.254 1108.81 792.719C1084.96 823.124 1056.13 851.939 1025.03 876.502C1010.42 899.215 993.871 920.774 975.746 940.712C931.306 989.599 878.199 1028.39 817.9 1056.01C758.641 1083.15 694.86 1098.32 628.326 1101.09H628.222C625.832 1101.18 622.246 1101.28 622.246 1101.28L619.71 1101.35C598.27 1101.79 577.775 1102 557.094 1102Z" fill="white"/><path d="M557.085 1052.1C536.985 1052.1 516.501 1051.91 492.629 1051.48L488.274 1051.41L483.743 1051.21C367.5 1046.5 264.102 1003.65 184.92 927.313C144.627 888.477 112.545 843.467 89.5455 793.54C63.231 736.399 49.8867 675.453 49.8867 612.398C49.8867 514.508 83.4554 417.794 144.419 340.081C167.637 310.476 195.853 282.805 226.47 259.551C240.636 236.568 256.973 214.853 275.129 194.874C315.027 150.976 362.709 116.153 416.855 91.3506C470.108 66.9536 527.497 53.3051 587.432 50.7895C588.804 50.7271 591.381 50.6336 593.938 50.5712L595.258 50.54C616.376 50.1034 636.538 49.8955 656.918 49.8955C677.007 49.8955 697.481 50.093 721.363 50.5088L725.573 50.592L729.543 50.7583C846.274 55.4672 949.869 98.3152 1029.08 174.676C1069.39 213.533 1101.48 258.543 1124.47 308.47C1150.78 365.601 1164.13 426.536 1164.13 489.602C1164.13 587.491 1130.56 684.195 1069.59 761.918C1046.38 791.523 1018.16 819.195 987.543 842.448C973.367 865.431 957.02 887.167 938.853 907.146C898.965 951.023 851.294 985.847 797.148 1010.65C743.801 1035.09 686.309 1048.74 626.28 1051.23C624.087 1051.31 620.793 1051.42 620.793 1051.42L618.725 1051.47C597.606 1051.9 577.455 1052.1 557.085 1052.1Z" fill="#FFD600"/><path d="M557.084 1002.19C537.244 1002.19 517.04 1001.99 493.511 1001.57L489.801 1001.51L485.945 1001.35C381.976 997.136 289.803 959.101 219.548 891.378C183.744 856.867 155.258 816.919 134.867 772.657C111.587 722.117 99.7812 668.198 99.7812 612.408C99.7812 525.642 129.577 439.873 183.672 370.892C206.286 342.056 233.941 315.57 264.143 293.741C277.768 270.394 293.845 248.481 312.054 228.44C347.389 189.563 389.646 158.7 437.629 136.725C484.979 115.041 536.08 102.9 589.53 100.644C590.84 100.582 593.001 100.509 595.153 100.457L596.265 100.436C617.029 100.02 636.869 99.8125 656.906 99.8125C676.663 99.8125 696.856 100.01 720.469 100.426L724.064 100.488L727.473 100.634C831.837 104.844 924.167 142.879 994.443 210.623C1030.26 245.155 1058.74 285.103 1079.13 329.354C1102.41 379.884 1114.22 433.802 1114.22 489.602C1114.22 576.369 1084.42 662.138 1030.33 731.119C1007.71 759.954 980.059 786.441 949.858 808.27C936.233 831.617 920.145 853.551 901.926 873.592C866.601 912.459 824.355 943.311 776.371 965.286C728.939 987.011 677.744 999.153 624.211 1001.38C622.309 1001.45 619.326 1001.54 619.326 1001.54L617.726 1001.59C596.919 1001.99 577.09 1002.19 557.084 1002.19Z" fill="#03D797"/><path d="M557.084 952.281C537.577 952.281 517.654 952.094 494.395 951.678L491.329 951.626L488.149 951.481C396.464 947.759 315.494 914.547 254.176 855.442C222.863 825.255 197.972 790.369 180.19 751.773C159.945 707.823 149.688 660.931 149.688 612.408C149.688 536.753 175.701 461.93 222.936 401.702C245 373.584 272.146 348.366 302.056 328.127C314.964 304.312 330.709 282.129 348.99 262.015C379.773 228.148 416.584 201.267 458.415 182.109C499.893 163.117 544.748 152.483 591.734 150.519C592.783 150.467 594.592 150.404 596.379 150.363L597.273 150.342C617.684 149.926 637.202 149.729 656.917 149.729C676.403 149.729 696.326 149.916 719.596 150.331L722.579 150.383L725.416 150.498C817.402 154.209 898.466 187.421 959.814 246.557C991.138 276.755 1016.03 311.64 1033.81 350.237C1054.06 394.176 1064.31 441.068 1064.31 489.602C1064.31 565.256 1038.3 640.079 991.065 700.307C969.012 728.426 941.856 753.644 911.956 773.883C899.048 797.698 883.292 819.891 865.011 840.005C834.238 873.862 797.427 900.743 755.596 919.901C714.077 938.913 669.18 949.547 622.143 951.501C620.542 951.564 617.882 951.647 617.882 951.647L616.718 951.678C596.286 952.073 576.778 952.281 557.084 952.281Z" fill="#00B3FF"/><path d="M557.084 902.365C537.889 902.365 518.247 902.178 495.278 901.773L492.857 901.731L490.352 901.617C410.941 898.394 341.195 869.995 288.816 819.507C261.982 793.644 240.687 763.832 225.524 730.89C208.324 693.541 199.594 653.676 199.594 612.408C199.594 547.876 221.834 483.989 262.2 432.513C283.754 405.029 310.526 381.183 340.312 362.815C352.253 338.356 367.541 315.799 385.905 295.591C412.126 266.735 443.512 243.824 479.18 227.494C514.744 211.205 553.312 202.088 593.812 200.384C594.768 200.342 596.171 200.29 597.575 200.259L598.271 200.248C618.35 199.843 637.535 199.646 656.907 199.646C676.102 199.646 695.745 199.833 718.713 200.238L721.093 200.28L723.369 200.373C802.988 203.585 872.785 231.984 925.186 282.504C952.02 308.377 973.315 338.189 988.488 371.131C1005.69 408.48 1014.42 448.345 1014.42 489.613C1014.42 554.145 992.178 618.032 951.812 669.508C930.258 696.982 903.496 720.828 873.7 739.206C861.759 763.665 846.471 786.222 828.097 806.44C801.876 835.286 770.5 858.197 734.832 874.527C699.226 890.837 660.617 899.953 620.085 901.637C618.786 901.689 616.448 901.752 616.448 901.752L615.72 901.773C595.621 902.168 576.446 902.365 557.084 902.365Z" fill="#911FFF"/><path d="M557.085 852.448C538.17 852.448 518.808 852.261 496.163 851.856L494.375 851.824L492.546 851.741C425.357 849.018 366.887 825.442 323.445 783.55C301.101 762.012 283.402 737.262 270.837 709.985C256.672 679.227 249.49 646.389 249.49 612.387C249.49 558.978 267.948 506.026 301.464 463.303C322.614 436.349 349.178 414.062 379.161 397.991C389.699 372.596 404.363 349.468 422.831 329.146C444.5 305.31 470.451 286.37 499.956 272.857C529.617 259.271 561.897 251.662 595.902 250.237C596.713 250.196 597.762 250.165 598.791 250.144L599.259 250.134C619.036 249.728 637.889 249.541 656.897 249.541C675.781 249.541 695.132 249.728 717.82 250.134L719.597 250.165L721.301 250.237C788.542 252.951 847.085 276.526 890.547 318.428C912.892 339.977 930.591 364.727 943.156 391.993C957.321 422.742 964.502 455.579 964.502 489.592C964.502 543.001 946.045 595.953 912.528 638.676C891.389 665.63 864.815 687.917 834.832 703.987C824.294 729.382 809.629 752.511 791.151 772.844C769.482 796.679 743.542 815.608 714.026 829.132C684.334 842.729 652.023 850.338 617.987 851.752C616.989 851.793 615.035 851.845 615.035 851.845L614.692 851.856C594.915 852.261 576.073 852.448 557.085 852.448Z" fill="#5F1CA2"/><path d="M553.842 802.542C534.065 802.542 513.84 802.344 490.186 801.929L489.147 801.908L488.066 801.866C433.733 799.673 387.09 781.274 353.241 748.644C335.698 731.731 321.855 712.418 312.106 691.254C301.246 667.688 295.748 642.501 295.748 616.399C295.748 574.996 310.142 533.853 336.28 500.527C358.229 472.544 387.703 451.016 420.409 438.823C422.051 432.586 424.016 426.421 426.302 420.361C434.554 398.49 446.672 378.688 462.292 361.494C479.014 343.095 499.083 328.449 521.947 317.981C545.32 307.274 570.959 301.276 598.147 300.143C598.656 300.123 600.194 300.081 600.194 300.081C620.803 299.665 640.414 299.468 660.16 299.468C679.865 299.468 700.089 299.665 723.806 300.081L724.855 300.102L725.884 300.143C780.269 302.337 826.923 320.746 860.761 353.366C878.304 370.289 892.148 389.592 901.896 410.756C912.757 434.321 918.254 459.508 918.254 485.621C918.254 527.024 903.86 568.167 877.722 601.493C855.773 629.487 826.299 651.004 793.593 663.198C791.951 669.435 789.987 675.599 787.7 681.659C779.438 703.53 767.33 723.343 751.71 740.526C734.988 758.925 714.92 773.561 692.056 784.028C668.672 794.735 643.023 800.744 615.825 801.877C615.149 801.908 613.798 801.939 613.798 801.939C593.22 802.334 573.609 802.542 553.842 802.542Z" fill="white"/><path d="M868.473 426.141C860.648 409.156 849.465 393.574 835.227 379.852C807.977 353.574 769.638 338.73 724.367 336.9L723.764 336.88L723.162 336.869C699.716 336.453 679.699 336.256 660.161 336.256C640.653 336.256 621.292 336.453 600.953 336.869H600.808C600.433 336.88 600.049 336.89 599.675 336.911C577.278 337.846 556.285 342.732 537.266 351.443C518.954 359.832 502.887 371.536 489.522 386.245C477.03 399.987 467.344 415.84 460.723 433.355C456.535 444.447 453.708 455.86 452.264 467.451L444.978 469.478C413.935 478.137 385.615 497.222 365.224 523.219C344.148 550.09 332.539 583.178 332.539 616.379C332.539 637.127 336.904 657.138 345.52 675.838C353.345 692.823 364.528 708.405 378.766 722.127C406.016 748.395 444.355 763.249 489.626 765.079L490.229 765.1L490.831 765.11C514.277 765.526 534.294 765.723 553.832 765.723C573.339 765.723 592.701 765.526 613.04 765.11H613.185C613.549 765.099 613.913 765.089 614.287 765.079C636.694 764.154 657.698 759.258 676.727 750.547C695.039 742.158 711.106 730.453 724.471 715.744C736.963 702.002 746.649 686.15 753.269 668.634C757.458 657.543 760.285 646.129 761.729 634.539L769.014 632.512C800.058 623.853 828.378 604.768 848.769 578.77C869.845 551.899 881.454 518.812 881.454 485.61C881.464 464.852 877.089 444.852 868.473 426.141ZM754.568 580.683C752.771 568.23 738.761 533.282 716.011 517.222C715.803 517.076 715.907 516.743 716.167 516.743C718.443 516.754 720.647 516.764 722.891 516.723C745.735 516.723 758.071 501.556 758.071 487.18C758.071 480.579 755.795 473.168 750.443 467.378C745.277 461.796 736.215 457.835 725.916 457.648C688.013 457.024 644.208 456.941 606.326 457.648C596.037 457.835 586.964 461.796 581.799 467.378C576.436 473.168 574.171 480.59 574.171 487.18V487.191C574.171 494.384 577.85 501.536 582.464 506.442C590.758 515.257 607.199 518.479 616.802 520.371C651.389 527.18 669.13 537.159 684.147 553.053C698.271 567.481 709.069 589.612 709.069 616.369V616.379C709.069 660.89 676.384 708.665 612.032 711.316C612.032 711.316 612.011 711.316 611.959 711.316C569.744 712.168 533.868 712.064 491.798 711.316C460.609 710.058 434.326 700.963 416.097 683.385C397.868 665.807 386.322 643.125 386.322 616.369C386.322 571.868 418.529 532.7 459.424 521.286C461.222 533.739 475.232 568.687 497.982 584.747C498.189 584.893 498.085 585.225 497.826 585.225C495.55 585.215 493.346 585.205 491.102 585.246C468.258 585.246 455.922 600.412 455.922 614.789C455.922 621.389 458.198 628.801 463.55 634.591C468.715 640.173 477.778 644.134 488.077 644.321C525.98 644.944 569.785 645.027 607.667 644.321C617.956 644.134 627.028 640.173 632.194 634.591C637.556 628.801 639.822 621.379 639.822 614.789V614.778C639.822 607.585 636.143 600.433 631.529 595.527C623.235 586.712 606.794 583.489 597.191 581.597C562.604 574.789 544.863 564.81 529.846 548.916C515.722 534.488 504.924 512.357 504.924 485.6V485.59C504.924 441.079 537.609 393.303 601.961 390.653C601.961 390.653 601.982 390.653 602.034 390.653C644.249 389.8 680.125 389.904 722.195 390.653C753.384 391.91 779.667 401.006 797.896 418.584C816.125 436.162 827.671 458.833 827.671 485.6C827.671 530.101 795.464 569.279 754.568 580.683Z" fill="#2D1040"/></svg>